<?xml version="1.0" encoding="UTF-8"?><svg xmlns="http://www.w3.org/2000/svg" xmlns:xlink="http://www.w3.org/1999/xlink" height="1586.1" preserveAspectRatio="xMidYMid meet" version="1.0" viewBox="0.0 0.0 1501.8 1586.1" width="1501.8" zoomAndPan="magnify"><g fill-rule="evenodd" id="change1_1"><path d="M 1470.011719 864.820312 C 1455.53125 1009.351562 1404.980469 1144.160156 1323.101562 1256.171875 C 1295.328125 1294.378906 1273.738281 1319.070312 1237.191406 1354.660156 C 1198.5 1392.398438 1175.480469 1410.910156 1130.628906 1440.808594 C 974.703125 1544.761719 790.0625 1580.359375 607.796875 1541.921875 C 549.414062 1529.578125 502.898438 1513.199219 443.566406 1484.011719 C 299.03125 1412.808594 184.164062 1296.761719 109.171875 1147 C 69.535156 1067.738281 46.992188 995.589844 34.175781 908.253906 C 14.953125 774.875 29.429688 638.171875 76.183594 512.148438 C 157.585938 293.570312 341.277344 119.378906 556.058594 57.671875 C 622.746094 38.449219 666.179688 32.75 746.15625 32.75 C 812.609375 32.75 834.679688 34.648438 886.179688 45.089844 C 1008.640625 69.539062 1130.859375 132.898438 1225.800781 220.480469 C 1363.679688 347.921875 1450.550781 522.359375 1469.769531 710.320312 C 1472.621094 739.273438 1472.851562 836.105469 1470.011719 864.820312 Z M 1497.300781 708.421875 C 1490.421875 647.902344 1471.429688 560.800781 1457.429688 524.730469 C 1454.101562 516.660156 1446.988281 498.148438 1441.289062 483.671875 C 1374.601562 309.949219 1243.121094 162.328125 1081.5 79.5 C 1005.078125 40.578125 934.832031 18.039062 847.496094 4.980469 C 819.730469 0.710938 802.878906 0 753.277344 0 C 687.773438 0 655.261719 3.320312 597.351562 16.378906 C 339.140625 74.050781 134.089844 262.011719 43.90625 523.539062 C 13.289062 612.304688 0 694.894531 0 793.386719 C 0 904.691406 17.324219 997.960938 56.957031 1098.351562 C 100.152344 1207.519531 159.960938 1297.46875 242.3125 1377.210938 C 359.550781 1490.890625 499.8125 1559 662.382812 1580.601562 C 704.625 1586.058594 795.285156 1586.058594 837.527344 1580.359375 C 974.941406 1561.851562 1100.488281 1508.929688 1206.570312 1424.679688 C 1239.089844 1399.050781 1304.589844 1332.828125 1329.511719 1301.03125 C 1419.929688 1184.261719 1473.328125 1055.871094 1495.160156 903.742188 C 1500.378906 866.957031 1501.808594 747.582031 1497.300781 708.421875"/><path d="M 1405.929688 693.707031 C 1399.28125 644.820312 1373.890625 557.480469 1350.160156 501 C 1333.308594 461.359375 1280.378906 376.640625 1247.160156 336.53125 C 1196.839844 276.011719 1137.511719 216.199219 1103.101562 191.519531 C 1082.210938 176.570312 1013.628906 138.839844 1001.519531 135.511719 C 990.605469 132.671875 983.484375 133.851562 983.484375 138.839844 C 983.484375 140.5 1004.128906 154.738281 1029.050781 170.398438 C 1086.480469 206.238281 1101.671875 218.339844 1146.289062 262.71875 C 1219.859375 336.53125 1263.769531 393.960938 1308.621094 474.648438 C 1326.191406 506.460938 1334.96875 527.101562 1353.238281 580.980469 C 1368.898438 627.492188 1377.921875 669.738281 1382.191406 716.730469 C 1383.621094 732.15625 1385.75 756.125 1386.941406 769.890625 C 1389.078125 794.097656 1392.640625 807.625 1396.671875 807.625 C 1397.859375 807.625 1400.710938 804.777344 1402.839844 801.21875 C 1406.398438 795.757812 1407.109375 788.640625 1407.589844 751.851562 C 1407.828125 728.359375 1406.878906 702.253906 1405.929688 693.707031"/><path d="M 1391.449219 883.09375 C 1388.601562 878.109375 1381.480469 877.398438 1378.160156 881.910156 C 1375.308594 885.230469 1371.988281 899.234375 1365.820312 935.78125 C 1363.210938 950.972656 1359.410156 968.058594 1357.28125 973.753906 C 1353.71875 983.722656 1353.71875 984.671875 1357.75 987.28125 C 1363.210938 991.316406 1364.871094 991.078125 1370.089844 985.859375 C 1375.308594 980.636719 1379.578125 966.398438 1387.890625 926.761719 C 1394.539062 894.960938 1395.011719 889.265625 1391.449219 883.09375"/></g></svg>